<?xml version="1.0" encoding="UTF-8"?>
<svg id="Layer_1" data-name="Layer 1" xmlns="http://www.w3.org/2000/svg" viewBox="0 0 562.75 601.09">
  <defs>
    <style>
      .cls-1 {
        fill: #007a58;
      }

      .cls-2 {
        fill: #fff;
      }

      .cls-3 {
        fill: #ced6d9;
      }
    </style>
  </defs>
  <path class="cls-3" d="m269.87,254.55l-6-8.99c14.69-9.8,32.31-13.29,49.62-9.82l-2.11,10.6c-14.48-2.89-29.23.03-41.51,8.22Z"/>
  <path class="cls-3" d="m246.33,289.71l-10.6-2.12c3.46-17.31,13.46-32.24,28.14-42.04l6,8.99c-12.29,8.19-20.65,20.68-23.54,35.16Z"/>
  <path class="cls-3" d="m149.16,270.29l-10.6-2.12c3.65-18.28,10.26-35.61,19.64-51.52,2.07-3.52,1.24-8.01-1.93-10.45l-92.64-71.41,6.6-8.56,92.64,71.41c7.47,5.76,9.47,16.29,4.64,24.49-8.76,14.87-14.94,31.07-18.35,48.16Z"/>
  <path class="cls-3" d="m163.12,392.19c-24.48-36.71-33.2-80.75-24.56-124.02l10.6,2.12c-8.08,40.44.07,81.6,22.95,115.9l-8.99,6Z"/>
  <path class="cls-3" d="m445.99,518.64l-6-8.99c55.85-37.25,93.86-94.02,107.02-159.85l10.6,2.12c-13.72,68.67-53.36,127.88-111.62,166.72Z"/>
  <path class="cls-3" d="m557.6,351.91l-10.6-2.12c10.16-50.86,4.56-102.75-16.21-150.07l9.9-4.34c21.66,49.36,27.51,103.49,16.91,156.53Z"/>
  <path class="cls-3" d="m301.09,562.77c-17.25,0-34.62-1.71-51.91-5.16l2.12-10.6c65.84,13.16,132.86-.11,188.7-37.36l6,8.99c-43.58,29.06-93.68,44.13-144.9,44.13Z"/>
  <path class="cls-3" d="m249.17,557.6c-45.02-8.99-86.96-29.66-121.29-59.75-2.71-2.37-6.87-2.34-9.68.07l-18.37,15.72-7.03-8.21,18.37-15.72c6.87-5.88,17.12-5.87,23.83.02,32.91,28.85,73.12,48.65,116.28,57.28l-2.12,10.6Z"/>
  <path class="cls-3" d="m255.53,553.37l-10.6-2.12,15.8-79.06c1.18-5.88-2.28-11.8-7.87-13.48-36.6-10.99-68.47-34.61-89.74-66.51l8.99-6c19.88,29.82,49.66,51.89,83.86,62.16,11.05,3.32,17.66,14.48,15.36,25.95l-15.8,79.06Z"/>
  <rect class="cls-3" x="229.98" y="563.51" width="33.86" height="10.8" transform="translate(-359.33 699.67) rotate(-78.71)"/>
  <rect class="cls-3" x="90.92" y="211.26" width="10.8" height="96.96" transform="translate(-177.25 303.29) rotate(-78.7)"/>
  <path class="cls-3" d="m285.81,302.63c-1.59,0-3.2-.16-4.8-.48l-41.04-8.2,2.12-10.6,41.04,8.2c3.52.7,7.11,0,10.09-2,2.98-1.99,5.02-5.03,5.72-8.55l8.2-41.04,10.6,2.12-8.2,41.04c-1.27,6.35-4.93,11.83-10.32,15.42-4.03,2.69-8.67,4.08-13.4,4.08Z"/>
  <rect class="cls-3" x="26.78" y="229.98" width="10.8" height="33.86" transform="translate(-216.25 230.08) rotate(-78.7)"/>
  <rect class="cls-3" x="187.04" y="229.4" width="10.8" height="99.09" transform="translate(-118.8 412.99) rotate(-78.7)"/>
  <rect class="cls-3" x="55.93" y="446.98" width="33.87" height="10.8" transform="translate(-238.81 116.5) rotate(-33.71)"/>
  <rect class="cls-3" x="78.8" y="410.69" width="96.96" height="10.81" transform="translate(-209.49 140.55) rotate(-33.7)"/>
  <path class="cls-3" d="m354.56,265.64c-6.28,0-12.52-2.22-17.46-6.58-7.26-6.42-16.16-10.82-25.72-12.73l2.11-10.6c11.43,2.29,22.07,7.55,30.76,15.23,5.29,4.67,13.14,5.17,19.09,1.21l67.13-44.77,6,8.99-67.13,44.77c-4.5,3-9.66,4.48-14.78,4.48Z"/>
  <path class="cls-3" d="m170.61,393.69l-6-8.99,67.13-44.77c5.95-3.97,8.51-11.4,6.22-18.09-3.75-10.98-4.52-22.82-2.23-34.25l10.6,2.12c-1.91,9.56-1.26,19.46,1.87,28.64,3.86,11.32-.44,23.89-10.45,30.57l-67.13,44.77Z"/>
  <path class="cls-3" d="m436.47,216.39l-6-8.99,65.45-43.65c2.85-1.9,4.8-4.92,5.36-8.3.54-3.31-.27-6.58-2.28-9.2-34.79-45.16-80.92-75.24-137.13-89.4-9.68-2.44-15.72-12.07-13.75-21.93l4.08-20.4,10.6,2.12-4.08,20.4c-.84,4.2,1.71,8.3,5.79,9.33,58.62,14.77,106.75,46.16,143.05,93.29,3.87,5.02,5.42,11.25,4.39,17.55-1.04,6.32-4.69,11.99-10.02,15.54l-65.45,43.65Z"/>
  <path class="cls-3" d="m456.42,543.98l-64.61-96.84c-5.4-8.09-3.58-19.16,4.12-25.2,25.27-19.81,43.48-46.71,52.66-77.79.6-2.04.32-4.19-.81-6.04-1.14-1.9-3.04-3.23-5.2-3.66l-68.85-13.76c-5.3-1.06-10.59,1.8-12.89,6.95-5.07,11.33-13.24,20.97-23.63,27.9l-6-8.99c8.69-5.79,15.52-13.86,19.77-23.33,4.38-9.78,14.65-15.18,24.87-13.13l68.85,13.76c5.13,1.03,9.63,4.19,12.34,8.67,2.67,4.42,3.37,9.78,1.92,14.69-9.82,33.25-29.31,62.03-56.36,83.23-3.34,2.62-4.12,7.22-1.8,10.7l64.61,96.84-8.99,6Z"/>
  <rect class="cls-3" x="143.3" y="55.93" width="10.81" height="33.86" transform="translate(-15.44 94.74) rotate(-33.7)"/>
  <path class="cls-3" d="m317.74,242.09l-10.6-2.12,16.72-83.66c.43-2.16-.07-4.41-1.37-6.2-1.27-1.74-3.13-2.83-5.24-3.06-31.94-3.52-63.68,2.92-91.81,18.6-8.87,4.94-19.77,2.35-25.36-6.02l-46.48-69.7,8.99-6,46.48,69.7c2.43,3.64,7.2,4.75,11.11,2.57,30.1-16.78,64.08-23.66,98.25-19.9,5.08.56,9.73,3.26,12.77,7.42,3.09,4.22,4.27,9.58,3.25,14.7l-16.72,83.66Z"/>
  <path class="cls-3" d="m300.44,423.1c-1.31,0-2.62-.02-3.93-.06-63.01-2.03-114.99-52.89-118.34-115.8-1.81-34.04,10.06-66.36,33.43-91.01,23.38-24.66,54.98-38.25,88.95-38.25,54.13,0,101.04,33.88,116.71,84.32,1.9,6.11,7.85,9.96,14.09,9.14l37.86-4.96,1.4,10.72-37.86,4.96c-11.5,1.5-22.35-5.5-25.81-16.65-14.26-45.89-57.02-76.72-106.39-76.72-30.98,0-59.79,12.39-81.11,34.88-21.31,22.47-32.13,51.95-30.48,83,3.06,57.35,50.45,103.72,107.9,105.57,40.06,1.3,78.05-19.15,99.03-53.36l9.21,5.65c-22.31,36.38-62.14,58.57-104.65,58.57Z"/>
  <path class="cls-3" d="m307.42,513.32c-116.25,0-210.83-94.58-210.83-210.83s94.58-210.83,210.83-210.83,210.83,94.58,210.83,210.83-94.58,210.83-210.83,210.83Zm0-410.86c-110.3,0-200.03,89.73-200.03,200.03s89.73,200.03,200.03,200.03,200.03-89.73,200.03-200.03-89.73-200.03-200.03-200.03Z"/>
  <path class="cls-2" d="m186.48,264.8c6.72,0,12.18,5.45,12.18,12.17s-5.45,12.18-12.18,12.18-12.18-5.45-12.18-12.18,5.45-12.17,12.18-12.17Z"/>
  <path class="cls-1" d="m186.48,270.21c3.73,0,6.77,3.04,6.77,6.77s-3.04,6.77-6.77,6.77-6.77-3.04-6.77-6.77,3.04-6.77,6.77-6.77h0Zm0-5.4c-6.72,0-12.18,5.45-12.18,12.17s5.45,12.18,12.18,12.18,12.18-5.45,12.18-12.18-5.45-12.17-12.18-12.17h0Z"/>
  <circle class="cls-2" cx="241.03" cy="288.65" r="12.18"/>
  <path class="cls-1" d="m241.03,281.88c3.73,0,6.77,3.04,6.77,6.77s-3.04,6.77-6.77,6.77-6.77-3.04-6.77-6.77,3.04-6.77,6.77-6.77h0Zm0-5.4c-6.72,0-12.17,5.45-12.17,12.18s5.45,12.18,12.17,12.18,12.18-5.45,12.18-12.18-5.45-12.18-12.18-12.18h0Z"/>
  <path class="cls-2" d="m312.44,228.86c6.72,0,12.18,5.45,12.18,12.18s-5.45,12.17-12.18,12.17-12.18-5.45-12.18-12.17,5.45-12.18,12.18-12.18Z"/>
  <path class="cls-1" d="m312.44,234.26c3.73,0,6.77,3.04,6.77,6.77s-3.04,6.77-6.77,6.77-6.77-3.04-6.77-6.77,3.04-6.77,6.77-6.77h0Zm0-5.4c-6.72,0-12.18,5.45-12.18,12.18s5.45,12.17,12.18,12.17,12.17-5.45,12.17-12.17-5.45-12.18-12.17-12.18h0Z"/>
  <path class="cls-2" d="m417.83,463.77c6.72,0,12.18,5.45,12.18,12.17s-5.45,12.18-12.18,12.18-12.18-5.45-12.18-12.18,5.45-12.17,12.18-12.17Z"/>
  <path class="cls-1" d="m417.83,469.18c3.73,0,6.77,3.04,6.77,6.77s-3.04,6.77-6.77,6.77-6.77-3.04-6.77-6.77,3.04-6.77,6.77-6.77h0Zm0-5.4c-6.72,0-12.18,5.45-12.18,12.17s5.45,12.18,12.18,12.18,12.18-5.45,12.18-12.18-5.45-12.17-12.18-12.17h0Z"/>
  <circle class="cls-2" cx="442.99" cy="515.04" r="12.18"/>
  <path class="cls-1" d="m442.99,508.27c3.73,0,6.77,3.04,6.77,6.77s-3.04,6.77-6.77,6.77-6.77-3.04-6.77-6.77,3.04-6.77,6.77-6.77h0Zm0-5.4c-6.72,0-12.18,5.45-12.18,12.18s5.45,12.18,12.18,12.18,12.17-5.45,12.17-12.18-5.45-12.18-12.17-12.18h0Z"/>
  <circle class="cls-2" cx="260" cy="502.86" r="12.18"/>
  <path class="cls-1" d="m259.99,496.09c3.73,0,6.77,3.04,6.77,6.77s-3.04,6.77-6.77,6.77-6.77-3.04-6.77-6.77,3.04-6.77,6.77-6.77h0Zm0-5.4c-6.72,0-12.17,5.45-12.17,12.18s5.45,12.18,12.17,12.18,12.18-5.45,12.18-12.18-5.45-12.18-12.18-12.18h0Z"/>
  <path class="cls-2" d="m134.58,400.29c6.72,0,12.18,5.45,12.18,12.18s-5.45,12.18-12.18,12.18-12.18-5.45-12.18-12.18,5.45-12.18,12.18-12.18Z"/>
  <path class="cls-1" d="m134.58,405.69c3.73,0,6.77,3.04,6.77,6.77s-3.04,6.77-6.77,6.77-6.77-3.04-6.77-6.77,3.04-6.77,6.77-6.77h0Zm0-5.4c-6.72,0-12.17,5.45-12.17,12.18s5.45,12.18,12.17,12.18,12.18-5.45,12.18-12.18-5.45-12.18-12.18-12.18h0Z"/>
  <path class="cls-2" d="m167.61,377.02c6.72,0,12.18,5.45,12.18,12.18s-5.45,12.17-12.18,12.17-12.17-5.45-12.17-12.17,5.45-12.18,12.17-12.18Z"/>
  <path class="cls-1" d="m167.61,382.42c3.73,0,6.77,3.04,6.77,6.77s-3.04,6.77-6.77,6.77-6.77-3.04-6.77-6.77,3.04-6.77,6.77-6.77h0Zm0-5.4c-6.72,0-12.17,5.45-12.17,12.18s5.45,12.17,12.17,12.17,12.18-5.45,12.18-12.17-5.45-12.18-12.18-12.18h0Z"/>
  <path class="cls-2" d="m202.54,352.67c6.72,0,12.18,5.45,12.18,12.18s-5.45,12.18-12.18,12.18-12.17-5.45-12.17-12.18,5.45-12.18,12.17-12.18Z"/>
  <path class="cls-1" d="m202.54,358.07c3.73,0,6.77,3.04,6.77,6.77s-3.04,6.77-6.77,6.77-6.77-3.04-6.77-6.77,3.04-6.77,6.77-6.77h0Zm0-5.4c-6.72,0-12.17,5.45-12.17,12.18s5.45,12.18,12.17,12.18,12.17-5.45,12.17-12.18-5.45-12.18-12.17-12.18h0Z"/>
  <path class="cls-2" d="m250.23,540.13c6.72,0,12.18,5.45,12.18,12.18s-5.45,12.18-12.18,12.18-12.18-5.45-12.18-12.18,5.45-12.18,12.18-12.18Z"/>
  <path class="cls-1" d="m250.23,545.53c3.73,0,6.77,3.04,6.77,6.77s-3.04,6.77-6.77,6.77-6.77-3.04-6.77-6.77,3.04-6.77,6.77-6.77h0Zm0-5.4c-6.72,0-12.18,5.45-12.18,12.17s5.45,12.18,12.18,12.18,12.18-5.45,12.18-12.18-5.45-12.17-12.18-12.17h0Z"/>
  <path class="cls-2" d="m323.92,173.29c6.72,0,12.18,5.45,12.18,12.18s-5.45,12.18-12.18,12.18-12.18-5.45-12.18-12.18,5.45-12.18,12.18-12.18Z"/>
  <path class="cls-1" d="m323.92,178.69c3.73,0,6.77,3.04,6.77,6.77s-3.04,6.77-6.77,6.77-6.77-3.04-6.77-6.77,3.04-6.77,6.77-6.77h0Zm0-5.4c-6.72,0-12.18,5.45-12.18,12.18s5.45,12.18,12.18,12.18,12.17-5.45,12.17-12.18-5.45-12.18-12.17-12.18h0Z"/>
  <circle class="cls-2" cx="397.57" cy="234.65" r="12.18"/>
  <path class="cls-1" d="m397.57,227.88c3.73,0,6.77,3.04,6.77,6.77s-3.04,6.77-6.77,6.77-6.77-3.04-6.77-6.77,3.04-6.77,6.77-6.77h0Zm0-5.4c-6.72,0-12.17,5.45-12.17,12.18s5.45,12.18,12.17,12.18,12.18-5.45,12.18-12.18-5.45-12.18-12.18-12.18h0Z"/>
  <circle class="cls-2" cx="474.74" cy="183.39" r="12.18"/>
  <path class="cls-1" d="m474.74,176.61c3.73,0,6.77,3.04,6.77,6.77s-3.04,6.77-6.77,6.77-6.77-3.04-6.77-6.77,3.04-6.77,6.77-6.77h0Zm0-5.4c-6.72,0-12.18,5.45-12.18,12.18s5.45,12.18,12.18,12.18,12.17-5.45,12.17-12.18-5.45-12.18-12.17-12.18h0Z"/>
  <path class="cls-2" d="m143.86,257.06c6.72,0,12.18,5.45,12.18,12.18s-5.45,12.17-12.18,12.17-12.18-5.45-12.18-12.17,5.45-12.18,12.18-12.18Z"/>
  <path class="cls-1" d="m143.86,262.46c3.73,0,6.77,3.04,6.77,6.77s-3.04,6.77-6.77,6.77-6.77-3.04-6.77-6.77,3.04-6.77,6.77-6.77h0Zm0-5.4c-6.72,0-12.18,5.45-12.18,12.18s5.45,12.17,12.18,12.17,12.18-5.45,12.18-12.17-5.45-12.18-12.18-12.18h0Z"/>
  <circle class="cls-2" cx="106" cy="262.23" r="12.18"/>
  <path class="cls-1" d="m106,255.46c3.73,0,6.77,3.04,6.77,6.77s-3.04,6.77-6.77,6.77-6.77-3.04-6.77-6.77,3.04-6.77,6.77-6.77h0Zm0-5.4c-6.72,0-12.18,5.45-12.18,12.18s5.45,12.18,12.18,12.18,12.18-5.45,12.18-12.18-5.45-12.18-12.18-12.18h0Z"/>
  <circle class="cls-2" cx="138.63" cy="185.82" r="12.18"/>
  <path class="cls-1" d="m138.63,179.05c3.73,0,6.77,3.04,6.77,6.77s-3.04,6.77-6.77,6.77-6.77-3.04-6.77-6.77,3.04-6.77,6.77-6.77h0Zm0-5.4c-6.72,0-12.17,5.45-12.17,12.18s5.45,12.18,12.17,12.18,12.18-5.45,12.18-12.18-5.45-12.18-12.18-12.18h0Z"/>
  <path class="cls-2" d="m189.61,121.24c6.72,0,12.17,5.45,12.17,12.18s-5.45,12.18-12.17,12.18-12.18-5.45-12.18-12.18,5.45-12.18,12.18-12.18Z"/>
  <path class="cls-1" d="m189.61,126.64c3.73,0,6.77,3.04,6.77,6.77s-3.04,6.77-6.77,6.77-6.77-3.04-6.77-6.77,3.04-6.77,6.77-6.77h0Zm0-5.4c-6.72,0-12.18,5.45-12.18,12.18s5.45,12.18,12.18,12.18,12.17-5.45,12.17-12.18-5.45-12.18-12.17-12.18h0Z"/>
  <path class="cls-2" d="m139.31,43.2c8.6,0,15.57,6.97,15.57,15.57s-6.97,15.57-15.57,15.57-15.57-6.97-15.57-15.57,6.97-15.57,15.57-15.57Z"/>
  <path class="cls-1" d="m139.31,51.3c4.12,0,7.47,3.35,7.47,7.47s-3.35,7.47-7.47,7.47-7.47-3.35-7.47-7.47,3.35-7.47,7.47-7.47h0Zm0-8.1c-8.6,0-15.57,6.97-15.57,15.57s6.97,15.57,15.57,15.57,15.57-6.97,15.57-15.57-6.97-15.57-15.57-15.57h0Z"/>
  <path class="cls-2" d="m15.57,228.02c8.6,0,15.57,6.97,15.57,15.57s-6.97,15.57-15.57,15.57-15.57-6.97-15.57-15.57,6.97-15.57,15.57-15.57Z"/>
  <path class="cls-1" d="m15.57,236.13c4.12,0,7.47,3.35,7.47,7.47s-3.35,7.47-7.47,7.47-7.47-3.35-7.47-7.47,3.35-7.47,7.47-7.47h0Zm0-8.1c-8.6,0-15.57,6.97-15.57,15.57s6.97,15.57,15.57,15.57,15.57-6.97,15.57-15.57-6.97-15.57-15.57-15.57h0Z"/>
  <path class="cls-2" d="m66.93,114.93c8.6,0,15.57,6.97,15.57,15.57s-6.97,15.57-15.57,15.57-15.57-6.97-15.57-15.57,6.97-15.57,15.57-15.57Z"/>
  <path class="cls-1" d="m66.93,123.04c4.12,0,7.47,3.35,7.47,7.47s-3.35,7.47-7.47,7.47-7.47-3.35-7.47-7.47,3.35-7.47,7.47-7.47h0Zm0-8.1c-8.6,0-15.57,6.97-15.57,15.57s6.97,15.57,15.57,15.57,15.57-6.97,15.57-15.57-6.97-15.57-15.57-15.57h0Z"/>
  <circle class="cls-2" cx="96.32" cy="509.54" r="15.57" transform="translate(-332.08 217.35) rotate(-45)"/>
  <path class="cls-1" d="m96.32,502.07c4.12,0,7.47,3.35,7.47,7.47s-3.35,7.47-7.47,7.47-7.47-3.35-7.47-7.47,3.35-7.47,7.47-7.47h0Zm0-8.1c-8.6,0-15.57,6.97-15.57,15.57s6.97,15.57,15.57,15.57,15.57-6.97,15.57-15.57-6.97-15.57-15.57-15.57h0Z"/>
  <circle class="cls-2" cx="58.77" cy="461.78" r="15.57" transform="translate(-233.99 99.86) rotate(-31.72)"/>
  <path class="cls-1" d="m58.77,454.31c4.12,0,7.47,3.35,7.47,7.47s-3.35,7.47-7.47,7.47-7.47-3.35-7.47-7.47,3.35-7.47,7.47-7.47h0Zm0-8.1c-8.6,0-15.57,6.97-15.57,15.57s6.97,15.57,15.57,15.57,15.57-6.97,15.57-15.57-6.97-15.57-15.57-15.57h0Z"/>
  <path class="cls-2" d="m357.49,0c8.6,0,15.57,6.97,15.57,15.57s-6.97,15.57-15.57,15.57-15.57-6.97-15.57-15.57,6.97-15.57,15.57-15.57Z"/>
  <path class="cls-1" d="m357.49,8.1c4.12,0,7.47,3.35,7.47,7.47s-3.35,7.47-7.47,7.47-7.47-3.35-7.47-7.47,3.35-7.47,7.47-7.47h0Zm0-8.1c-8.6,0-15.57,6.97-15.57,15.57s6.97,15.57,15.57,15.57,15.57-6.97,15.57-15.57-6.97-15.57-15.57-15.57h0Z"/>
  <circle class="cls-2" cx="535.74" cy="197.55" r="15.57" transform="translate(266.79 701.25) rotate(-82.14)"/>
  <path class="cls-1" d="m535.75,190.08c4.12,0,7.47,3.35,7.47,7.47s-3.35,7.47-7.47,7.47-7.47-3.35-7.47-7.47,3.35-7.47,7.47-7.47h0Zm0-8.1c-8.6,0-15.57,6.97-15.57,15.57s6.97,15.57,15.57,15.57,15.57-6.97,15.57-15.57-6.97-15.57-15.57-15.57h0Z"/>
  <path class="cls-2" d="m243.6,569.94c8.6,0,15.57,6.97,15.57,15.57s-6.97,15.57-15.57,15.57-15.57-6.97-15.57-15.57,6.97-15.57,15.57-15.57Z"/>
  <path class="cls-1" d="m243.6,578.05c4.12,0,7.47,3.35,7.47,7.47s-3.35,7.47-7.47,7.47-7.47-3.35-7.47-7.47,3.35-7.47,7.47-7.47h0Zm0-8.1c-8.6,0-15.57,6.97-15.57,15.57s6.97,15.57,15.57,15.57,15.57-6.97,15.57-15.57-6.97-15.57-15.57-15.57h0Z"/>
  <path class="cls-2" d="m460.92,525.4c8.6,0,15.57,6.97,15.57,15.57s-6.97,15.57-15.57,15.57-15.57-6.97-15.57-15.57,6.97-15.57,15.57-15.57Z"/>
  <path class="cls-1" d="m460.92,533.51c4.12,0,7.47,3.35,7.47,7.47s-3.35,7.47-7.47,7.47-7.47-3.35-7.47-7.47,3.35-7.47,7.47-7.47h0Zm0-8.1c-8.6,0-15.57,6.97-15.57,15.57s6.97,15.57,15.57,15.57,15.57-6.97,15.57-15.57-6.97-15.57-15.57-15.57h0Z"/>
  <path class="cls-2" d="m334.22,335.46c8.6,0,15.57,6.97,15.57,15.57s-6.97,15.57-15.57,15.57-15.57-6.97-15.57-15.57,6.97-15.57,15.57-15.57Z"/>
  <path class="cls-1" d="m334.22,343.57c4.12,0,7.47,3.35,7.47,7.47s-3.35,7.47-7.47,7.47-7.47-3.35-7.47-7.47,3.35-7.47,7.47-7.47h0Zm0-8.1c-8.6,0-15.57,6.97-15.57,15.57s6.97,15.57,15.57,15.57,15.57-6.97,15.57-15.57-6.97-15.57-15.57-15.57h0Z"/>
  <path class="cls-2" d="m400.49,346.14c8.6,0,15.57,6.97,15.57,15.57s-6.97,15.57-15.57,15.57-15.57-6.97-15.57-15.57,6.97-15.57,15.57-15.57Z"/>
  <path class="cls-1" d="m400.49,354.24c4.12,0,7.47,3.35,7.47,7.47s-3.35,7.47-7.47,7.47-7.47-3.35-7.47-7.47,3.35-7.47,7.47-7.47h0Zm0-8.1c-8.6,0-15.57,6.97-15.57,15.57s6.97,15.57,15.57,15.57,15.57-6.97,15.57-15.57-6.97-15.57-15.57-15.57h0Z"/>
  <path class="cls-2" d="m469.91,256.27c8.6,0,15.57,6.97,15.57,15.57s-6.97,15.57-15.57,15.57-15.57-6.97-15.57-15.57,6.97-15.57,15.57-15.57Z"/>
  <path class="cls-1" d="m469.91,264.37c4.12,0,7.47,3.35,7.47,7.47s-3.35,7.47-7.47,7.47-7.47-3.35-7.47-7.47,3.35-7.47,7.47-7.47h0Zm0-8.1c-8.6,0-15.57,6.97-15.57,15.57s6.97,15.57,15.57,15.57,15.57-6.97,15.57-15.57-6.97-15.57-15.57-15.57h0Z"/>
  <path class="cls-2" d="m98.54,157.53c0-1.9,1.54-3.45,3.45-3.45s3.45,1.54,3.45,3.45-1.54,3.45-3.45,3.45-3.45-1.54-3.45-3.45Z"/>
  <path class="cls-2" d="m161.3,97.06c0-1.9,1.54-3.45,3.45-3.45s3.45,1.54,3.45,3.45-1.54,3.45-3.45,3.45-3.45-1.54-3.45-3.45Z"/>
  <path class="cls-2" d="m226.23,157.53c0-1.9,1.54-3.45,3.45-3.45s3.45,1.54,3.45,3.45-1.54,3.45-3.45,3.45-3.45-1.54-3.45-3.45Z"/>
  <path class="cls-2" d="m254.76,146.64c0-1.9,1.54-3.45,3.45-3.45s3.45,1.54,3.45,3.45-1.54,3.45-3.45,3.45-3.45-1.54-3.45-3.45Z"/>
  <path class="cls-2" d="m282.52,141.4c0-1.9,1.54-3.45,3.45-3.45s3.45,1.54,3.45,3.45-1.54,3.45-3.45,3.45-3.45-1.54-3.45-3.45Z"/>
  <path class="cls-2" d="m311.75,141.4c0-1.9,1.54-3.45,3.45-3.45s3.45,1.54,3.45,3.45-1.54,3.45-3.45,3.45-3.45-1.54-3.45-3.45Z"/>
  <path class="cls-2" d="m324.67,163.99c0-1.9,1.54-3.45,3.45-3.45s3.45,1.54,3.45,3.45-1.54,3.45-3.45,3.45-3.45-1.54-3.45-3.45Z"/>
  <path class="cls-2" d="m315.2,213.39c0-1.9,1.54-3.45,3.45-3.45s3.45,1.54,3.45,3.45-1.54,3.45-3.45,3.45-3.45-1.54-3.45-3.45Z"/>
  <path class="cls-2" d="m200.45,155.81c0-1.9,1.54-3.45,3.45-3.45s3.45,1.54,3.45,3.45-1.54,3.45-3.45,3.45-3.45-1.54-3.45-3.45Z"/>
  <path class="cls-2" d="m60.04,253.21c0-1.9,1.54-3.45,3.45-3.45s3.45,1.54,3.45,3.45-1.54,3.45-3.45,3.45-3.45-1.54-3.45-3.45Z"/>
  <path class="cls-2" d="m271.43,295.51c0-1.9,1.54-3.45,3.45-3.45s3.45,1.54,3.45,3.45-1.54,3.45-3.45,3.45-3.45-1.54-3.45-3.45Z"/>
  <path class="cls-2" d="m303.41,269.35c0-1.9,1.54-3.45,3.45-3.45s3.45,1.54,3.45,3.45-1.54,3.45-3.45,3.45-3.45-1.54-3.45-3.45Z"/>
  <path class="cls-2" d="m161.3,209.94c0-1.9,1.54-3.45,3.45-3.45s3.45,1.54,3.45,3.45-1.54,3.45-3.45,3.45-3.45-1.54-3.45-3.45Z"/>
  <path class="cls-2" d="m150.72,236.8c0-1.9,1.54-3.45,3.45-3.45s3.45,1.54,3.45,3.45-1.54,3.45-3.45,3.45-3.45-1.54-3.45-3.45Z"/>
  <path class="cls-2" d="m137.28,304.28c0-1.9,1.54-3.45,3.45-3.45s3.45,1.54,3.45,3.45-1.54,3.45-3.45,3.45-3.45-1.54-3.45-3.45Z"/>
  <path class="cls-2" d="m140.73,334.58c0-1.9,1.54-3.45,3.45-3.45s3.45,1.54,3.45,3.45-1.54,3.45-3.45,3.45-3.45-1.54-3.45-3.45Z"/>
  <path class="cls-2" d="m149.36,361.4c0-1.9,1.54-3.45,3.45-3.45s3.45,1.54,3.45,3.45-1.54,3.45-3.45,3.45-3.45-1.54-3.45-3.45Z"/>
  <path class="cls-2" d="m184.97,414.25c0-1.9,1.54-3.45,3.45-3.45s3.45,1.54,3.45,3.45-1.54,3.45-3.45,3.45-3.45-1.54-3.45-3.45Z"/>
  <path class="cls-2" d="m95.09,435.48c0-1.9,1.54-3.45,3.45-3.45s3.45,1.54,3.45,3.45-1.54,3.45-3.45,3.45-3.45-1.54-3.45-3.45Z"/>
  <path class="cls-2" d="m225.41,348.55c0-1.9,1.54-3.45,3.45-3.45s3.45,1.54,3.45,3.45-1.54,3.45-3.45,3.45-3.45-1.54-3.45-3.45Z"/>
  <path class="cls-2" d="m237.58,313.38c0-1.9,1.54-3.45,3.45-3.45s3.45,1.54,3.45,3.45-1.54,3.45-3.45,3.45-3.45-1.54-3.45-3.45Z"/>
  <path class="cls-2" d="m263.42,250.05c0-1.9,1.54-3.45,3.45-3.45s3.45,1.54,3.45,3.45-1.54,3.45-3.45,3.45-3.45-1.54-3.45-3.45Z"/>
  <path class="cls-2" d="m338.81,256.27c0-1.9,1.54-3.45,3.45-3.45s3.45,1.54,3.45,3.45-1.54,3.45-3.45,3.45-3.45-1.54-3.45-3.45Z"/>
  <path class="cls-2" d="m370.27,251.8c0-1.9,1.54-3.45,3.45-3.45s3.45,1.54,3.45,3.45-1.54,3.45-3.45,3.45-3.45-1.54-3.45-3.45Z"/>
  <path class="cls-2" d="m432.52,276.16c0-1.9,1.54-3.45,3.45-3.45s3.45,1.54,3.45,3.45-1.54,3.45-3.45,3.45-3.45-1.54-3.45-3.45Z"/>
  <path class="cls-2" d="m405.5,255.25c0-1.9,1.54-3.45,3.45-3.45s3.45,1.54,3.45,3.45-1.54,3.45-3.45,3.45-3.45-1.54-3.45-3.45Z"/>
  <path class="cls-2" d="m374.09,211.52c0-1.9,1.54-3.45,3.45-3.45s3.45,1.54,3.45,3.45-1.54,3.45-3.45,3.45-3.45-1.54-3.45-3.45Z"/>
  <path class="cls-2" d="m348.81,194.91c0-1.9,1.54-3.45,3.45-3.45s3.45,1.54,3.45,3.45-1.54,3.45-3.45,3.45-3.45-1.54-3.45-3.45Z"/>
  <path class="cls-2" d="m283.88,184.13c0-1.9,1.54-3.45,3.45-3.45s3.45,1.54,3.45,3.45-1.54,3.45-3.45,3.45-3.45-1.54-3.45-3.45Z"/>
  <path class="cls-2" d="m252.38,192.64c0-1.9,1.54-3.45,3.45-3.45s3.45,1.54,3.45,3.45-1.54,3.45-3.45,3.45-3.45-1.54-3.45-3.45Z"/>
  <path class="cls-2" d="m222.61,210.46c0-1.9,1.54-3.45,3.45-3.45s3.45,1.54,3.45,3.45-1.54,3.45-3.45,3.45-3.45-1.54-3.45-3.45Z"/>
  <path class="cls-2" d="m198.66,237.58c0-1.9,1.54-3.45,3.45-3.45s3.45,1.54,3.45,3.45-1.54,3.45-3.45,3.45-3.45-1.54-3.45-3.45Z"/>
  <path class="cls-2" d="m181.82,322.4c0-1.9,1.54-3.45,3.45-3.45s3.45,1.54,3.45,3.45-1.54,3.45-3.45,3.45-3.45-1.54-3.45-3.45Z"/>
  <path class="cls-2" d="m222.85,390.73c0-1.9,1.54-3.45,3.45-3.45s3.45,1.54,3.45,3.45-1.54,3.45-3.45,3.45-3.45-1.54-3.45-3.45Z"/>
  <path class="cls-2" d="m253.04,408.87c0-1.9,1.54-3.45,3.45-3.45s3.45,1.54,3.45,3.45-1.54,3.45-3.45,3.45-3.45-1.54-3.45-3.45Z"/>
  <path class="cls-2" d="m288.77,417.7c0-1.9,1.54-3.45,3.45-3.45s3.45,1.54,3.45,3.45-1.54,3.45-3.45,3.45-3.45-1.54-3.45-3.45Z"/>
  <path class="cls-2" d="m328.91,413.45c0-1.9,1.54-3.45,3.45-3.45s3.45,1.54,3.45,3.45-1.54,3.45-3.45,3.45-3.45-1.54-3.45-3.45Z"/>
  <path class="cls-2" d="m364.04,396.89c0-1.9,1.54-3.45,3.45-3.45s3.45,1.54,3.45,3.45-1.54,3.45-3.45,3.45-3.45-1.54-3.45-3.45Z"/>
  <path class="cls-2" d="m419.71,219.03c0-1.9,1.54-3.45,3.45-3.45s3.45,1.54,3.45,3.45-1.54,3.45-3.45,3.45-3.45-1.54-3.45-3.45Z"/>
  <path class="cls-2" d="m446.51,201.09c0-1.9,1.54-3.45,3.45-3.45s3.45,1.54,3.45,3.45-1.54,3.45-3.45,3.45-3.45-1.54-3.45-3.45Z"/>
  <path class="cls-2" d="m493.32,169.84c0-1.9,1.54-3.45,3.45-3.45s3.45,1.54,3.45,3.45-1.54,3.45-3.45,3.45-3.45-1.54-3.45-3.45Z"/>
  <g>
    <path class="cls-2" d="m337.15,505.02c.06-1.9,1.65-3.4,3.55-3.34,1.9.06,3.4,1.65,3.34,3.55-.06,1.9-1.65,3.4-3.55,3.34-1.9-.06-3.4-1.65-3.34-3.55Z"/>
    <path class="cls-2" d="m374.03,495.51c.06-1.9,1.65-3.4,3.55-3.34,1.9.06,3.4,1.65,3.34,3.55-.06,1.9-1.65,3.4-3.55,3.34-1.9-.06-3.4-1.65-3.34-3.55Z"/>
    <path class="cls-2" d="m442.52,454.16c0-1.9,1.54-3.45,3.45-3.45s3.45,1.54,3.45,3.45-1.54,3.45-3.45,3.45-3.45-1.54-3.45-3.45Z"/>
    <path class="cls-2" d="m467.54,426.79c0-1.9,1.54-3.45,3.45-3.45s3.45,1.54,3.45,3.45-1.54,3.45-3.45,3.45-3.45-1.54-3.45-3.45Z"/>
    <path class="cls-2" d="m487.32,395.23c0-1.9,1.54-3.45,3.45-3.45s3.45,1.54,3.45,3.45-1.54,3.45-3.45,3.45-3.45-1.54-3.45-3.45Z"/>
    <path class="cls-2" d="m501.19,360.16c0-1.9,1.54-3.45,3.45-3.45s3.45,1.54,3.45,3.45-1.54,3.45-3.45,3.45-3.45-1.54-3.45-3.45Z"/>
    <path class="cls-2" d="m508.46,322.27c0-1.9,1.54-3.45,3.45-3.45s3.45,1.54,3.45,3.45-1.54,3.45-3.45,3.45-3.45-1.54-3.45-3.45Z"/>
    <path class="cls-2" d="m508.46,282.7c0-1.9,1.54-3.45,3.45-3.45s3.45,1.54,3.45,3.45-1.54,3.45-3.45,3.45-3.45-1.54-3.45-3.45Z"/>
    <path class="cls-2" d="m501.19,244.82c0-1.9,1.54-3.45,3.45-3.45s3.45,1.54,3.45,3.45-1.54,3.45-3.45,3.45-3.45-1.54-3.45-3.45Z"/>
    <path class="cls-2" d="m487.32,209.75c0-1.9,1.54-3.45,3.45-3.45s3.45,1.54,3.45,3.45-1.54,3.45-3.45,3.45-3.45-1.54-3.45-3.45Z"/>
    <path class="cls-2" d="m442.52,150.81c0-1.9,1.54-3.45,3.45-3.45s3.45,1.54,3.45,3.45-1.54,3.45-3.45,3.45-3.45-1.54-3.45-3.45Z"/>
    <path class="cls-2" d="m412.97,128.33c0-1.9,1.54-3.45,3.45-3.45s3.45,1.54,3.45,3.45-1.54,3.45-3.45,3.45-3.45-1.54-3.45-3.45Z"/>
    <path class="cls-2" d="m379.57,111.42c0-1.9,1.54-3.45,3.45-3.45s3.45,1.54,3.45,3.45-1.54,3.45-3.45,3.45-3.45-1.54-3.45-3.45Z"/>
    <path class="cls-2" d="m343,100.76c0-1.9,1.54-3.45,3.45-3.45s3.45,1.54,3.45,3.45-1.54,3.45-3.45,3.45-3.45-1.54-3.45-3.45Z"/>
    <path class="cls-2" d="m303.97,97.06c0-1.9,1.54-3.45,3.45-3.45s3.45,1.54,3.45,3.45-1.54,3.45-3.45,3.45-3.45-1.54-3.45-3.45Z"/>
    <path class="cls-2" d="m264.93,100.76c0-1.9,1.54-3.45,3.45-3.45s3.45,1.54,3.45,3.45-1.54,3.45-3.45,3.45-3.45-1.54-3.45-3.45Z"/>
    <path class="cls-2" d="m228.37,111.42c0-1.9,1.54-3.45,3.45-3.45s3.45,1.54,3.45,3.45-1.54,3.45-3.45,3.45-3.45-1.54-3.45-3.45Z"/>
    <path class="cls-2" d="m158.1,158.5c0-1.9,1.54-3.45,3.45-3.45s3.45,1.54,3.45,3.45-1.54,3.45-3.45,3.45-3.45-1.54-3.45-3.45Z"/>
    <path class="cls-2" d="m114.21,224.66c0-1.9,1.54-3.45,3.45-3.45s3.45,1.54,3.45,3.45-1.54,3.45-3.45,3.45-3.45-1.54-3.45-3.45Z"/>
    <path class="cls-2" d="m98.54,311.17c0-1.9,1.54-3.45,3.45-3.45s3.45,1.54,3.45,3.45-1.54,3.45-3.45,3.45-3.45-1.54-3.45-3.45Z"/>
    <path class="cls-2" d="m109,367.06c0-1.9,1.54-3.45,3.45-3.45s3.45,1.54,3.45,3.45-1.54,3.45-3.45,3.45-3.45-1.54-3.45-3.45Z"/>
    <path class="cls-2" d="m158.51,447.26c0-1.9,1.54-3.45,3.45-3.45s3.45,1.54,3.45,3.45-1.54,3.45-3.45,3.45-3.45-1.54-3.45-3.45Z"/>
    <path class="cls-2" d="m188.42,473.2c0-1.9,1.54-3.45,3.45-3.45s3.45,1.54,3.45,3.45-1.54,3.45-3.45,3.45-3.45-1.54-3.45-3.45Z"/>
    <path class="cls-2" d="m221.47,490.69c0-1.9,1.54-3.45,3.45-3.45s3.45,1.54,3.45,3.45-1.54,3.45-3.45,3.45-3.45-1.54-3.45-3.45Z"/>
    <path class="cls-2" d="m298.02,507.51c.06-1.9,1.65-3.4,3.55-3.34,1.9.06,3.4,1.65,3.34,3.55-.06,1.9-1.65,3.4-3.55,3.34-1.9-.06-3.4-1.65-3.34-3.55Z"/>
  </g>
  <path class="cls-2" d="m493.32,134.5c0-1.9,1.54-3.45,3.45-3.45s3.45,1.54,3.45,3.45-1.54,3.45-3.45,3.45-3.45-1.54-3.45-3.45Z"/>
  <path class="cls-2" d="m472.24,112.4c0-1.9,1.54-3.45,3.45-3.45s3.45,1.54,3.45,3.45-1.54,3.45-3.45,3.45-3.45-1.54-3.45-3.45Z"/>
  <path class="cls-2" d="m445.08,90.39c0-1.9,1.54-3.45,3.45-3.45s3.45,1.54,3.45,3.45-1.54,3.45-3.45,3.45-3.45-1.54-3.45-3.45Z"/>
  <path class="cls-2" d="m417.75,73.63c0-1.9,1.54-3.45,3.45-3.45s3.45,1.54,3.45,3.45-1.54,3.45-3.45,3.45-3.45-1.54-3.45-3.45Z"/>
  <path class="cls-2" d="m388.81,60.59c0-1.9,1.54-3.45,3.45-3.45s3.45,1.54,3.45,3.45-1.54,3.45-3.45,3.45-3.45-1.54-3.45-3.45Z"/>
  <path class="cls-2" d="m351.68,45.49c0-1.9,1.54-3.45,3.45-3.45s3.45,1.54,3.45,3.45-1.54,3.45-3.45,3.45-3.45-1.54-3.45-3.45Z"/>
  <path class="cls-2" d="m209.44,434.32c0-1.9,1.54-3.45,3.45-3.45s3.45,1.54,3.45,3.45-1.54,3.45-3.45,3.45-3.45-1.54-3.45-3.45Z"/>
  <path class="cls-2" d="m239.99,449.87c0-1.9,1.54-3.45,3.45-3.45s3.45,1.54,3.45,3.45-1.54,3.45-3.45,3.45-3.45-1.54-3.45-3.45Z"/>
  <path class="cls-2" d="m261.97,477.2c0-1.9,1.54-3.45,3.45-3.45s3.45,1.54,3.45,3.45-1.54,3.45-3.45,3.45-3.45-1.54-3.45-3.45Z"/>
  <path class="cls-2" d="m216.99,544.43c0-1.9,1.54-3.45,3.45-3.45s3.45,1.54,3.45,3.45-1.54,3.45-3.45,3.45-3.45-1.54-3.45-3.45Z"/>
  <path class="cls-2" d="m280.72,556.63c0-1.9,1.54-3.45,3.45-3.45s3.45,1.54,3.45,3.45-1.54,3.45-3.45,3.45-3.45-1.54-3.45-3.45Z"/>
  <path class="cls-2" d="m319.9,556.37c0-1.9,1.54-3.45,3.45-3.45s3.45,1.54,3.45,3.45-1.54,3.45-3.45,3.45-3.45-1.54-3.45-3.45Z"/>
  <path class="cls-2" d="m360.34,549.47c0-1.9,1.54-3.45,3.45-3.45s3.45,1.54,3.45,3.45-1.54,3.45-3.45,3.45-3.45-1.54-3.45-3.45Z"/>
  <path class="cls-2" d="m397.9,536.69c0-1.9,1.54-3.45,3.45-3.45s3.45,1.54,3.45,3.45-1.54,3.45-3.45,3.45-3.45-1.54-3.45-3.45Z"/>
  <path class="cls-2" d="m469.91,490.69c0-1.9,1.54-3.45,3.45-3.45s3.45,1.54,3.45,3.45-1.54,3.45-3.45,3.45-3.45-1.54-3.45-3.45Z"/>
  <path class="cls-2" d="m397.9,451.38c0-1.9,1.54-3.45,3.45-3.45s3.45,1.54,3.45,3.45-1.54,3.45-3.45,3.45-3.45-1.54-3.45-3.45Z"/>
  <path class="cls-2" d="m405.65,417.7c0-1.9,1.54-3.45,3.45-3.45s3.45,1.54,3.45,3.45-1.54,3.45-3.45,3.45-3.45-1.54-3.45-3.45Z"/>
  <path class="cls-2" d="m432.52,385.96c0-1.9,1.54-3.45,3.45-3.45s3.45,1.54,3.45,3.45-1.54,3.45-3.45,3.45-3.45-1.54-3.45-3.45Z"/>
  <path class="cls-2" d="m449.55,349.58c0-1.9,1.54-3.45,3.45-3.45s3.45,1.54,3.45,3.45-1.54,3.45-3.45,3.45-3.45-1.54-3.45-3.45Z"/>
  <path class="cls-2" d="m425.62,326.36c0-1.9,1.54-3.45,3.45-3.45s3.45,1.54,3.45,3.45-1.54,3.45-3.45,3.45-3.45-1.54-3.45-3.45Z"/>
  <path class="cls-2" d="m383.98,317.66c0-1.9,1.54-3.45,3.45-3.45s3.45,1.54,3.45,3.45-1.54,3.45-3.45,3.45-3.45-1.54-3.45-3.45Z"/>
  <path class="cls-2" d="m350.87,328.74c0-1.9,1.54-3.45,3.45-3.45s3.45,1.54,3.45,3.45-1.54,3.45-3.45,3.45-3.45-1.54-3.45-3.45Z"/>
  <path class="cls-2" d="m495.55,463.77c0-1.9,1.54-3.45,3.45-3.45s3.45,1.54,3.45,3.45-1.54,3.45-3.45,3.45-3.45-1.54-3.45-3.45Z"/>
  <path class="cls-2" d="m517.77,432.5c0-1.9,1.54-3.45,3.45-3.45s3.45,1.54,3.45,3.45-1.54,3.45-3.45,3.45-3.45-1.54-3.45-3.45Z"/>
  <path class="cls-2" d="m532.85,402.84c0-1.9,1.54-3.45,3.45-3.45s3.45,1.54,3.45,3.45-1.54,3.45-3.45,3.45-3.45-1.54-3.45-3.45Z"/>
  <path class="cls-2" d="m544.29,369.61c0-1.9,1.54-3.45,3.45-3.45s3.45,1.54,3.45,3.45-1.54,3.45-3.45,3.45-3.45-1.54-3.45-3.45Z"/>
  <path class="cls-2" d="m551.18,338.77c0-1.9,1.54-3.45,3.45-3.45s3.45,1.54,3.45,3.45-1.54,3.45-3.45,3.45-3.45-1.54-3.45-3.45Z"/>
  <path class="cls-2" d="m553.89,305.94c0-1.9,1.54-3.45,3.45-3.45s3.45,1.54,3.45,3.45-1.54,3.45-3.45,3.45-3.45-1.54-3.45-3.45Z"/>
  <path class="cls-2" d="m552.69,276.16c0-1.9,1.54-3.45,3.45-3.45s3.45,1.54,3.45,3.45-1.54,3.45-3.45,3.45-3.45-1.54-3.45-3.45Z"/>
  <path class="cls-2" d="m547.87,243.41c0-1.9,1.54-3.45,3.45-3.45s3.45,1.54,3.45,3.45-1.54,3.45-3.45,3.45-3.45-1.54-3.45-3.45Z"/>
  <path class="cls-2" d="m190.86,534.55c0-1.9,1.54-3.45,3.45-3.45s3.45,1.54,3.45,3.45-1.54,3.45-3.45,3.45-3.45-1.54-3.45-3.45Z"/>
  <path class="cls-2" d="m165.8,521.5c0-1.9,1.54-3.45,3.45-3.45s3.45,1.54,3.45,3.45-1.54,3.45-3.45,3.45-3.45-1.54-3.45-3.45Z"/>
  <path class="cls-2" d="m143.7,506.77c0-1.9,1.54-3.45,3.45-3.45s3.45,1.54,3.45,3.45-1.54,3.45-3.45,3.45-3.45-1.54-3.45-3.45Z"/>
  <path class="cls-2" d="m120.77,490.69c0-1.9,1.54-3.45,3.45-3.45s3.45,1.54,3.45,3.45-1.54,3.45-3.45,3.45-3.45-1.54-3.45-3.45Z"/>
</svg>